# xmcd CD database file
#
# Track frame offsets:
#	150
#	17654
#	44598
#	73653
#	96658
#	131754
#	149526
#	168469
#	195045
#	214900
#
# Disc length: 3096 seconds
#
# Revision: 0
# Processed by: cddbd v1.5.1PL0 Copyright (c) Steve Scherf et al.
# Submitted via: CDex 1.51
#
DISCID=980c160a
DTITLE=Blues del Fuego - Live
DYEAR=2004
DGENRE=Blues
TTITLE0=The First Time I Fell Blue
TTITLE1=You Made My Heart So Blue
TTITLE2=Strange Feeling
TTITLE3=Singin' an old blue
TTITLE4=Evil Traces
TTITLE5=Mad Dog Blues
TTITLE6=Somebody Told Me
TTITLE7=Betrayal Blues
TTITLE8=You Do Something Special Happen To Me
TTITLE9=Overhead Blues
EXTD=YEAR: 2004
EXTT0=
EXTT1=
EXTT2=
EXTT3=
EXTT4=
EXTT5=
EXTT6=
EXTT7=
EXTT8=
EXTT9=
PLAYORDER=
